# xmcd
#
# Track frame offsets: 
#        150
#        15894
#        37888
#        59299
#        84183
#        104458
#        118339
#        137285
#        154918
#        173395
#        192477
#        211546
#        226027
#        244479
#        259552
#        271207
#        287862
#        305023
#        321447
#        343041
#
# Disc length: 4786 seconds
#
# Revision: 2
# Processed by: cddbd v1.5.2PL0 Copyright (c) Steve Scherf et al.
# Submitted via: ExactAudioCopy v0.95b4
#
DISCID=0c12b014
DTITLE=Ministry Of Sound - Chillout Sessions 7 [CD2]
DYEAR=2005
DGENRE=Electronic
TTITLE0=Spektrum - Kinda New
TTITLE1=Phonique: feat. Erlend Oye - For The Time Being
TTITLE2=Rachael Starr - Till There Was You (John Creamer and Stephane K 
TTITLE2=Radio Mix)
TTITLE3=Alexkid with Lissette Alea - Dont Hide It
TTITLE4=ArtOfDisco by Vince - Superworld
TTITLE5=Turntablerocker - TT.roy (Dub)
TTITLE6=André Krami feat. Schad Privat - Safari
TTITLE7=Juliet - Avalon
TTITLE8=Evil Nine - Hired Goons
TTITLE9=Bang Bang - Silicone (The Mighty Bop vs Blackjoy Dub)
TTITLE10=Bent - Comin' Back
TTITLE11=Unity - I Love You (Manoo And Francois A Remix)
TTITLE12=Lisa Shaw - Let It Ride (Jimpster Remix)
TTITLE13=Greens Keepers feat. Colette - Keep It Down
TTITLE14=Lemon Jelly - Stay With You
TTITLE15=Black Grass - Aporia
TTITLE16=Lazyboy - Police, Dogs, Bonfire (Linus Loves Remix)
TTITLE17=Mocky feat. Jamie Lidell - How Will I Know You
TTITLE18=Cagedbaby - Hello There
TTITLE19=Candi Stanton - You Got The Love (Now Voyager Mix)
EXTD=
EXTT0=
EXTT1=
EXTT2=
EXTT3=
EXTT4=
EXTT5=
EXTT6=
EXTT7=
EXTT8=
EXTT9=
EXTT10=
EXTT11=
EXTT12=
EXTT13=
EXTT14=
EXTT15=
EXTT16=
EXTT17=
EXTT18=
EXTT19=
PLAYORDER=
